<svg width="18" height="13" viewBox="0 0 18 13" fill="none" xmlns="http://www.w3.org/2000/svg">
<path fill-rule="evenodd" clip-rule="evenodd" d="M2 1H16C16.0513 1 16.1018 1.00387 16.151 1.01133L9.29995 6.14961C9.12217 6.28294 8.87773 6.28294 8.69995 6.14961L1.84892 1.01134C1.89819 1.00387 1.94864 1 2 1ZM1.05672 1.66719C1.01998 1.7713 1 1.88332 1 2V11C1 11.5523 1.44772 12 2 12H16C16.5523 12 17 11.5523 17 11V2C17 1.88329 16.98 1.77126 16.9433 1.66713L9.89995 6.94961C9.36662 7.34961 8.63329 7.34961 8.09995 6.94961L1.05672 1.66719ZM0 2C0 0.89543 0.895431 0 2 0H16C17.1046 0 18 0.895431 18 2V11C18 12.1046 17.1046 13 16 13H2C0.89543 13 0 12.1046 0 11V2Z" fill="white"/>
</svg>
