<svg width="13" height="12" viewBox="0 0 13 12" fill="none" xmlns="http://www.w3.org/2000/svg">
<path fill-rule="evenodd" clip-rule="evenodd" d="M8 4.5C8 6.433 6.433 8 4.5 8C2.567 8 1 6.433 1 4.5C1 2.567 2.567 1 4.5 1C6.433 1 8 2.567 8 4.5ZM7.68472 7.67924C6.87016 8.49519 5.74403 9 4.5 9C2.01472 9 0 6.98528 0 4.5C0 2.01472 2.01472 0 4.5 0C6.98528 0 9 2.01472 9 4.5C9 5.37929 8.74781 6.19968 8.31181 6.89279L12.3645 10.9135L11.6546 11.6178L7.68472 7.67924Z" fill="black" fill-opacity="0.5"/>
</svg>
