<svg width="64" height="64" viewBox="0 0 64 64" fill="none" xmlns="http://www.w3.org/2000/svg">
<path fill-rule="evenodd" clip-rule="evenodd" d="M62.53 31.6014C62.53 32.7047 62.8667 33.9138 63.2242 35.1929L63.2251 35.1962C63.7938 37.2328 64.3813 39.3366 63.6791 41.3854C62.9487 43.5137 61.1332 44.9042 59.3761 46.2493C58.323 47.0545 57.3283 47.817 56.6828 48.6551C56.031 49.5043 55.5686 50.6402 55.0792 51.8423L55.0746 51.8537L55.0708 51.863C54.2637 53.8455 53.4287 55.8966 51.5576 57.1861C49.7199 58.4529 47.4272 58.5738 45.2096 58.6906C43.8268 58.7635 42.519 58.8335 41.4242 59.1701C40.4035 59.4834 39.3512 60.1315 38.2369 60.8177L38.2216 60.8272L38.2159 60.8307C36.4101 61.9427 34.3641 63.2028 31.9988 63.2028C29.6358 63.2028 27.5929 61.9452 25.7899 60.8354L25.7788 60.8285L25.7724 60.8246C24.6548 60.1363 23.5982 59.4856 22.5762 59.1715C21.4814 58.8349 20.1736 58.7648 18.7908 58.692C16.5746 58.5752 14.2805 58.4543 12.4428 57.1875C10.5718 55.8961 9.7357 53.8438 8.92751 51.86L8.92722 51.8592C8.43613 50.6501 7.97147 49.5097 7.31343 48.6551C6.66931 47.817 5.6746 47.0545 4.62147 46.2493C2.86578 44.9056 1.05027 43.5137 0.321281 41.3868C-0.381273 39.3368 0.205812 37.2305 0.77342 35.1943C1.13096 33.9151 1.46763 32.7061 1.46763 31.6028C1.46763 30.4995 1.13096 29.2917 0.77342 28.0126L0.772454 28.0091C0.205147 25.9726 -0.380875 23.8689 0.321281 21.8214C1.0499 19.6956 2.86254 18.3069 4.61739 16.9624L4.62008 16.9603L4.6372 16.9472C5.68399 16.1442 6.67142 15.3867 7.31343 14.5504C7.9681 13.6983 8.43194 12.5608 8.92278 11.3571L8.92722 11.3463L8.92901 11.3419C9.73674 9.35922 10.5716 7.30996 12.44 6.02212C14.2786 4.75393 16.5683 4.63192 18.7837 4.51388L18.7908 4.5135C20.1736 4.44068 21.4814 4.37061 22.5776 4.03399C23.5955 3.72299 24.6449 3.07619 25.7571 2.39066L25.7816 2.3756C27.5859 1.26131 29.6324 0 31.9988 0C34.3652 0 36.4117 1.26131 38.2161 2.37423C39.3374 3.06533 40.3975 3.71797 41.4214 4.03261C42.5162 4.36923 43.824 4.43931 45.2068 4.51213C47.423 4.62891 49.7185 4.7512 51.5576 6.02075C53.4252 7.30805 54.2602 9.3575 55.0676 11.3394L55.0704 11.3463C55.5601 12.554 56.0248 13.6944 56.6814 14.549C57.3258 15.3857 58.3182 16.1457 59.3693 16.9507L59.3748 16.9548C61.1318 18.2986 62.9487 19.6904 63.6777 21.8201C64.3803 23.8673 63.7932 25.9736 63.2242 28.0098C62.8667 29.289 62.53 30.4981 62.53 31.6014ZM57.6721 44.0757C59.1684 42.9303 60.5823 41.848 61.0426 40.5047C61.4725 39.253 61.0205 37.6359 60.5418 35.9239C60.1495 34.5252 59.7474 33.0798 59.7474 31.6028C59.7474 30.1257 60.1509 28.6803 60.5418 27.2802L60.5469 27.2621C61.0222 25.5568 61.471 23.9467 61.0426 22.7022C60.5829 21.3579 59.172 20.2766 57.6779 19.1315L57.6704 19.1257L57.6653 19.1218C56.5191 18.2437 55.3333 17.3351 54.4678 16.2101C53.5874 15.0671 53.0334 13.7078 52.4961 12.3893L52.4882 12.3699C51.8037 10.6868 51.1554 9.0957 49.9645 8.27407C48.7765 7.45518 46.9707 7.35763 45.0578 7.25733L45.0409 7.25643C43.5534 7.17702 42.0154 7.09492 40.5948 6.65827C39.2273 6.23784 37.9655 5.46017 36.744 4.70586C35.1107 3.69874 33.5679 2.74795 31.9986 2.74795C30.4327 2.74795 28.8945 3.69468 27.2665 4.69668L27.256 4.70311L27.2528 4.70513C26.0323 5.45744 24.7701 6.23546 23.4038 6.65553C21.9838 7.09337 20.4451 7.17558 18.9595 7.25496L18.9409 7.25595C17.028 7.35625 15.2208 7.45106 14.0327 8.27132C12.8433 9.09021 12.195 10.6813 11.5105 12.3671L11.5035 12.3842C10.9659 13.702 10.4104 15.0637 9.52943 16.2074C8.66539 17.3337 7.47817 18.2437 6.33063 19.1232L6.32551 19.1271L6.32269 19.1292C4.8282 20.2743 3.41762 21.3551 2.95742 22.698C2.52754 23.9497 2.97829 25.5669 3.45686 27.2789L3.4616 27.2959C3.84966 28.6906 4.24984 30.129 4.24984 31.6C4.24984 33.0724 3.84892 34.5134 3.46053 35.9094L3.45686 35.9225L3.45503 35.9291C2.97853 37.6386 2.52809 39.2546 2.95742 40.5047C3.41713 41.8462 4.82658 42.9261 6.3193 44.0699L6.3269 44.0757L6.3343 44.0813C7.48112 44.9603 8.66597 45.8684 9.53082 46.9926C10.4128 48.1413 10.9707 49.5084 11.5091 50.8315C12.195 52.5174 12.8447 54.1098 14.0355 54.9314C15.2222 55.749 17.028 55.8451 18.9395 55.9454C20.4322 56.0237 21.9778 56.1062 23.4052 56.5445C24.7714 56.9663 26.0332 57.744 27.2519 58.4955C28.8865 59.504 30.428 60.4548 31.9986 60.4548C33.5693 60.4548 35.1121 59.504 36.7468 58.4955C37.9669 57.7426 39.2301 56.9663 40.5948 56.5445C42.0221 56.1048 43.5676 56.0238 45.0603 55.9454L45.0606 55.9454C46.9721 55.8451 48.7765 55.7503 49.9645 54.9314C51.1568 54.1098 51.8051 52.5174 52.4909 50.8301C53.0293 49.507 53.5858 48.1413 54.4664 46.9926C55.3333 45.8676 56.5191 44.9591 57.6653 44.0809L57.6704 44.0771L57.6721 44.0757ZM11.1309 31.6005C11.1309 20.2364 20.4922 10.9909 31.9988 10.9909C43.5054 10.9909 52.8667 20.2364 52.8667 31.6005C52.8667 42.9647 43.5054 52.2102 31.9988 52.2102C20.4922 52.2102 11.1309 42.9647 11.1309 31.6005ZM13.9133 31.6005C13.9133 41.4492 22.0267 49.4622 31.9988 49.4622C41.9709 49.4622 50.0843 41.4492 50.0843 31.6005C50.0843 27.8537 48.9046 24.3776 46.9013 21.5032L33.1326 40.6399C32.8961 40.9697 32.5233 41.1799 32.1157 41.2129C32.0767 41.217 32.0364 41.2184 31.9988 41.2184C31.6315 41.2184 31.2768 41.0755 31.0152 40.8158L22.668 32.5719C22.1241 32.0347 22.1241 31.1664 22.668 30.6291C23.212 30.0919 24.0912 30.0919 24.6352 30.6291L31.8179 37.723L45.076 19.2966C41.7789 15.8809 37.1421 13.7389 31.9988 13.7389C22.0267 13.7389 13.9133 21.7519 13.9133 31.6005Z" fill="white"/>
</svg>
