<svg width="92" height="60" viewBox="0 0 92 60" fill="none" xmlns="http://www.w3.org/2000/svg">
<path fill-rule="evenodd" clip-rule="evenodd" d="M83.3691 15.6109L85.6998 25.4361C89.262 26.0076 92.0002 29.2572 92 33.1684V49.01C92 49.8303 91.3689 50.4952 90.5908 50.4952H85.9847C85.9849 50.51 85.9854 50.5248 85.9859 50.5397L85.986 50.5408C85.9866 50.5585 85.9872 50.5762 85.9872 50.5941C85.9872 55.7806 81.9834 60 77.0624 60C72.1414 60 68.1376 55.7806 68.1376 50.5941C68.1376 50.5771 68.1382 50.5601 68.1388 50.5432C68.1394 50.5272 68.1399 50.5112 68.1401 50.4952H36.3817L36.3821 50.5176L36.3829 50.5399L36.3829 50.5404C36.3835 50.5582 36.3841 50.576 36.3841 50.5941C36.3841 55.7806 32.3803 60 27.4593 60C22.5383 60 18.5345 55.7806 18.5345 50.5941C18.5345 50.576 18.5352 50.558 18.5358 50.54C18.5363 50.5251 18.5368 50.5101 18.537 50.4952H10.925C9.31902 50.4952 8.01261 49.1183 8.01261 47.4258V44.1584H3.40924C2.63088 44.1584 2 43.4935 2 42.6732C2 41.8529 2.63106 41.188 3.40924 41.188H16.9374C17.7158 41.188 18.3466 41.8529 18.3466 42.6732C18.3466 43.4935 17.7156 44.1584 16.9374 44.1584H10.8309V47.4258C10.8309 47.4805 10.8729 47.5247 10.9248 47.5247H19.025C20.2352 43.8413 23.5579 41.188 27.4593 41.188C31.3608 41.188 34.6832 43.8413 35.8937 47.5247H65.1311V36.3368C65.1311 35.5165 65.7621 34.8516 66.5403 34.8516C67.3187 34.8516 67.9496 35.5167 67.9496 36.3368V47.5251H68.6281C69.8383 43.8416 73.1609 41.1884 77.0624 41.1884C80.9639 41.1884 84.2863 43.8416 85.4968 47.5251H89.1815V40.9905H87.5844C85.1496 40.9905 83.1689 38.903 83.1689 36.337V33.1687C83.1689 32.3484 83.8 31.6835 84.5782 31.6835H88.96C88.3634 29.7337 86.6265 28.3187 84.581 28.3172L84.5771 28.3174L84.5755 28.3172L84.5734 28.317H67.9499V30.0007C67.9499 30.821 67.3188 31.4859 66.5407 31.4859C65.7623 31.4859 65.1314 30.8208 65.1314 30.0007V3.06935C65.1314 3.0147 65.0894 2.97042 65.0376 2.97042H10.9248C10.8729 2.97042 10.8309 3.0147 10.8309 3.06935V30.0003C10.8309 30.8206 10.1999 31.4855 9.42168 31.4855C8.64331 31.4855 8.01244 30.8204 8.01244 30.0003V3.06935C8.01244 1.37684 9.31884 0 10.9248 0H65.0378C66.6437 0 67.9501 1.37684 67.9501 3.06935V6.33693H78.5659C81.8293 6.33693 84.4845 9.13506 84.4845 12.5746V14.1587C84.4845 14.8725 84.0063 15.4683 83.3691 15.6109ZM78.5659 9.30717H67.9501V12.6735H81.6662V12.5746C81.6662 10.7729 80.2754 9.30717 78.5659 9.30717ZM67.9501 15.6437V25.3468H82.7736L80.4719 15.6437H67.9501ZM21.3529 50.5945C21.3529 54.1433 24.0922 57.0301 27.4593 57.0301C30.8264 57.0301 33.5658 54.1433 33.5658 50.5945C33.5658 47.0457 30.8264 44.1588 27.4593 44.1588C24.0922 44.1588 21.3529 47.0457 21.3529 50.5945ZM70.9563 50.5945C70.9563 54.1433 73.6957 57.0301 77.0628 57.0301C80.4299 57.0301 83.1693 54.1433 83.1693 50.5945C83.1693 47.0457 80.4299 44.1588 77.0628 44.1588C73.6957 44.1588 70.9563 47.0457 70.9563 50.5945ZM87.5847 38.0201H89.1817V34.6536H85.9876V36.3368C85.9876 37.265 86.7041 38.0201 87.5847 38.0201ZM25 50.5C25 49.1214 26.1214 48 27.5 48C28.8786 48 30 49.1214 30 50.5C30 51.8786 28.8786 53 27.5 53C26.1214 53 25 51.8786 25 50.5ZM77.1035 48C75.725 48 74.6035 49.1214 74.6035 50.5C74.6035 51.8786 75.725 53 77.1035 53C78.4821 53 79.6035 51.8786 79.6035 50.5C79.6035 49.1214 78.4821 48 77.1035 48ZM13.4092 37H34.4531C35.2315 37 35.8624 37.6788 35.8624 38.5162C35.8624 39.3536 35.2313 40.0324 34.4531 40.0324H13.4092C12.6309 40.0324 12 39.3536 12 38.5162C12 37.6788 12.6311 37 13.4092 37ZM19.4469 33H1.40924C0.631058 33 0 33.6788 0 34.5162C0 35.3536 0.630882 36.0324 1.40924 36.0324H19.4469C20.2251 36.0324 20.8561 35.3536 20.8561 34.5162C20.8561 33.6788 20.2251 33 19.4469 33ZM49.0099 14.9992C49.5601 14.407 50.4525 14.407 51.0027 14.999C51.5529 15.5911 51.5529 16.5509 51.0025 17.1433L37.4744 31.6983C37.1995 31.9944 36.8386 32.1423 36.4781 32.1423C36.1175 32.1423 35.7568 31.9944 35.4817 31.6983L27.966 23.6121C27.4156 23.0199 27.4156 22.0601 27.966 21.468C28.5162 20.8758 29.4085 20.8758 29.9588 21.468L36.4781 28.482L49.0099 14.9992Z" fill="white"/>
</svg>
