<svg width="74" height="78" viewBox="0 0 74 78" fill="none" xmlns="http://www.w3.org/2000/svg">
<path fill-rule="evenodd" clip-rule="evenodd" d="M58.487 0H4.65125C2.08666 0 0 1.71101 0 3.81425V58.3499C0 60.4531 2.08648 62.1641 4.65125 62.1641H31.5692C32.389 62.1641 33.0537 61.6191 33.0537 60.9468C33.0537 60.2745 32.3891 59.7294 31.5692 59.7294H4.65125C3.72356 59.7294 2.96881 59.1105 2.96881 58.3497V3.81425C2.96881 3.0535 3.72356 2.43457 4.65125 2.43457H58.487C59.4147 2.43457 60.1694 3.0535 60.1694 3.81425V44.067C60.1694 44.7392 60.834 45.2843 61.6539 45.2843C62.4737 45.2843 63.1384 44.7393 63.1384 44.067V3.81425C63.1382 1.71101 61.0518 0 58.487 0ZM22.3146 13.5635C21.6898 13.5635 21.1831 14.1084 21.1831 14.7808C21.1831 16.2575 20.0665 17.459 18.6939 17.459C17.3214 17.459 16.2047 16.2575 16.2047 14.7808C16.2047 13.3041 17.3214 12.1027 18.6939 12.1027C19.3187 12.1027 19.8254 11.5577 19.8254 10.8853C19.8254 10.2129 19.3188 9.66797 18.6939 9.66797C16.0736 9.66797 13.9419 11.9616 13.9419 14.7807C13.9419 17.5997 16.0737 19.8934 18.6939 19.8934C21.3141 19.8934 23.4459 17.5997 23.4459 14.7807C23.4461 14.1084 22.9394 13.5635 22.3146 13.5635ZM22.3146 27.8465C21.6898 27.8465 21.1831 28.3915 21.1831 29.0639C21.1831 30.5406 20.0665 31.742 18.6939 31.742C17.3214 31.742 16.2047 30.5406 16.2047 29.0639C16.2047 27.5872 17.3214 26.3858 18.6939 26.3858C19.3187 26.3858 19.8254 25.8408 19.8254 25.1684C19.8254 24.496 19.3188 23.951 18.6939 23.951C16.0736 23.951 13.9419 26.2447 13.9419 29.0638C13.9419 31.8828 16.0737 34.1765 18.6939 34.1765C21.3141 34.1765 23.4459 31.8828 23.4459 29.0638C23.4461 28.3917 22.9394 27.8465 22.3146 27.8465ZM32.2384 31.3079H40.6865C41.3115 31.3079 41.818 31.8529 41.818 32.5253C41.818 33.1976 41.3113 33.7426 40.6865 33.7426H32.2384C31.6135 33.7426 31.1069 33.1976 31.1069 32.5253C31.1069 31.8529 31.6136 31.3079 32.2384 31.3079ZM40.6865 26.1139H32.2384C31.6136 26.1139 31.1069 26.6589 31.1069 27.3313C31.1069 28.0037 31.6135 28.5486 32.2384 28.5486H40.6865C41.3113 28.5486 41.818 28.0037 41.818 27.3313C41.818 26.6589 41.3115 26.1139 40.6865 26.1139ZM32.2384 45.5909H38.2728C38.8976 45.5909 39.4043 46.1359 39.4043 46.8083C39.4043 47.4807 38.8976 48.0256 38.2728 48.0256H32.2384C31.6135 48.0256 31.1069 47.4807 31.1069 46.8083C31.1069 46.1359 31.6136 45.5909 32.2384 45.5909ZM40.6865 40.3972H32.2384C31.6136 40.3972 31.1069 40.9421 31.1069 41.6145C31.1069 42.2869 31.6135 42.8318 32.2384 42.8318H40.6865C41.3113 42.8318 41.818 42.2869 41.818 41.6145C41.818 40.9421 41.3115 40.3972 40.6865 40.3972ZM32.2384 17.0247H51.5484C52.1732 17.0247 52.6797 17.5696 52.6797 18.242C52.6797 18.9144 52.173 19.4594 51.5482 19.4594H32.2384C31.6135 19.4594 31.1069 18.9144 31.1069 18.242C31.1069 17.5696 31.6136 17.0247 32.2384 17.0247ZM46.7208 11.8307H32.2384C31.6136 11.8307 31.1069 12.3757 31.1069 13.0481C31.1069 13.7205 31.6135 14.2655 32.2384 14.2655H46.7208C47.3456 14.2655 47.8523 13.7205 47.8523 13.0481C47.8523 12.3757 47.3458 11.8307 46.7208 11.8307ZM21.1831 43.3471C21.1831 42.6747 21.6898 42.1297 22.3146 42.1297C22.9394 42.1297 23.4461 42.6747 23.4459 43.3469C23.4459 46.166 21.3141 48.4597 18.6939 48.4597C16.0737 48.4597 13.9419 46.166 13.9419 43.3469C13.9419 40.5279 16.0736 38.2342 18.6939 38.2342C19.3188 38.2342 19.8254 38.7792 19.8254 39.4516C19.8254 40.1239 19.3187 40.6689 18.6939 40.6689C17.3214 40.6689 16.2047 41.8704 16.2047 43.3471C16.2047 44.8238 17.3214 46.0252 18.6939 46.0252C20.0665 46.0252 21.1831 44.8238 21.1831 43.3471ZM67.3411 50.252C68.1729 49.5725 69.224 49.2518 70.2756 49.3646C72.3642 49.5897 74.0003 51.6215 74.0001 53.9908V67.4395C74.0001 73.1227 69.7027 77.7461 64.4206 77.7461H54.2155C49.7484 77.7461 45.9138 74.4786 44.8908 69.8001L42.3657 58.2541C41.7931 55.6362 42.5066 52.9382 44.274 51.0366L47.6 47.4582V31.9166C47.6 29.5476 49.236 27.5158 51.3247 27.2907C52.4954 27.1647 53.6641 27.5768 54.5314 28.4211C55.3995 29.2661 55.8972 30.4727 55.8972 31.7314V47.2338C56.6019 46.8479 57.4038 46.6815 58.2068 46.7677C59.5142 46.9086 60.6441 47.7573 61.3067 48.9536C62.1384 48.2742 63.1893 47.9535 64.2412 48.0662C65.5485 48.2071 66.6785 49.0558 67.3411 50.252ZM64.4207 75.3111C68.4551 75.3111 71.7373 71.7797 71.7373 67.4392H71.738V53.99C71.738 52.8565 70.9968 51.8886 70.0506 51.7869C69.5068 51.7278 68.9876 51.9106 68.5876 52.2998C68.1927 52.6842 67.9665 53.2328 67.9665 53.8049V55.7527C67.9665 56.4251 67.4598 56.97 66.835 56.97C66.21 56.97 65.7035 56.4249 65.7035 55.7527V52.6917C65.7035 51.5582 64.9623 50.5903 64.0161 50.4884C63.4727 50.4297 62.9531 50.6122 62.5531 51.0015C62.1582 51.3859 61.932 51.9345 61.932 52.5066V54.4544C61.932 55.1268 61.4253 55.6718 60.8005 55.6718C60.1755 55.6718 59.669 55.1266 59.669 54.4544V51.3936C59.669 50.2601 58.9278 49.2922 57.9816 49.1903C57.4381 49.1314 56.9186 49.3141 56.5186 49.7034C56.1237 50.0877 55.8974 50.6363 55.8974 51.2085V53.1562C55.8974 53.8286 55.3909 54.3736 54.766 54.3736C54.141 54.3736 53.6345 53.8285 53.6345 53.1562V31.7315C53.6345 31.1594 53.4081 30.6107 53.0134 30.2264C52.6137 29.8371 52.0939 29.6545 51.5504 29.7133C50.604 29.8151 49.8629 30.7829 49.8629 31.9165V55.1037C49.8629 55.7761 49.3564 56.3211 48.7315 56.3211C48.1065 56.3211 47.6 55.7759 47.6 55.1037V50.9009L45.8741 52.7578C44.6648 54.0588 44.1766 55.905 44.5684 57.696L47.0935 69.242C47.8749 72.8155 50.8037 75.3111 54.2157 75.3111H64.4207Z" fill="white"/>
</svg>
