<svg width="67" height="66" viewBox="0 0 67 66" fill="none" xmlns="http://www.w3.org/2000/svg">
<path fill-rule="evenodd" clip-rule="evenodd" d="M66.1878 36.6958C65.8135 35.362 65.4611 34.1012 65.4611 32.9508C65.4611 31.8004 65.8135 30.5397 66.1878 29.2059C66.7835 27.0827 67.3981 24.8865 66.6626 22.7518C65.8995 20.5312 63.9974 19.08 62.158 17.6788L62.1523 17.6745C61.0519 16.8351 60.013 16.0427 59.3383 15.1703C58.6509 14.2792 58.1645 13.0901 57.6518 11.8308L57.6489 11.8236C56.8036 9.75709 55.9295 7.62011 53.9744 6.27785C52.049 4.95408 49.6459 4.82658 47.3259 4.7048C45.8782 4.62887 44.5092 4.55581 43.363 4.20481C42.2911 3.87674 41.1813 3.19623 40.0074 2.47561C38.1185 1.31517 35.9761 0 33.4988 0C31.0214 0 28.879 1.31517 26.9901 2.47704L26.9645 2.49274C25.8001 3.20755 24.7015 3.88197 23.636 4.20624C22.4883 4.55724 21.1193 4.63031 19.6716 4.70624L19.6642 4.70663C17.345 4.82972 14.9479 4.95693 13.0231 6.27928C11.0671 7.62211 10.1931 9.75888 9.34756 11.8262L9.34568 11.8308L9.34103 11.8421L9.34103 11.8421C8.82718 13.0972 8.3416 14.2833 7.65625 15.1717C6.98414 16.0437 5.95042 16.8336 4.85456 17.6709L4.83664 17.6846L4.83384 17.6867L4.83382 17.6867C2.99671 19.0886 1.09911 20.5367 0.336341 22.7533C-0.398728 24.8881 0.214762 27.0816 0.808662 29.2051L0.809674 29.2088C1.18397 30.5425 1.53642 31.8018 1.53642 32.9523C1.53642 34.1027 1.18397 35.3634 0.809674 36.6972C0.215459 38.8204 -0.399145 41.0166 0.336341 43.1541C1.0995 45.3718 3.00011 46.8231 4.8381 48.2242C5.9406 49.0638 6.98193 49.8589 7.65625 50.7328C8.34513 51.6239 8.83157 52.813 9.34568 54.0737L9.34599 54.0745C10.1921 56.143 11.0674 58.283 13.026 59.6295C14.9499 60.9504 17.3516 61.0765 19.6716 61.1983C21.1193 61.2742 22.4883 61.3473 23.6345 61.6983C24.7044 62.0257 25.8105 62.7043 26.9804 63.4219L26.9872 63.426L26.9988 63.4331L26.9988 63.4332L26.9988 63.4332C28.8864 64.5904 31.025 65.9016 33.4988 65.9016C35.9749 65.9016 38.1168 64.5878 40.0072 63.4283L40.0133 63.4246L40.0294 63.4147C41.1958 62.6992 42.2975 62.0234 43.3659 61.6968C44.5121 61.3458 45.8811 61.2728 47.3288 61.1968C49.6503 61.0751 52.0505 60.949 53.9744 59.6281C55.9331 58.2835 56.8073 56.1448 57.6523 54.0776L57.6562 54.068L57.6611 54.056C58.1734 52.8026 58.6575 51.6182 59.3398 50.7328C60.0156 49.8589 61.0569 49.0638 62.1594 48.2242C63.9988 46.8217 65.8995 45.3718 66.6641 43.1527C67.3992 41.0163 66.7841 38.8227 66.1888 36.6991L66.1878 36.6958ZM63.904 42.2344C63.4221 43.635 61.9419 44.7636 60.3754 45.9579L60.3737 45.9592L60.3683 45.9633C59.1685 46.8789 57.927 47.8263 57.0196 48.9993C56.0977 50.197 55.5151 51.621 54.9515 53.0007C54.2334 54.76 53.5548 56.4204 52.3066 57.2771C51.0629 58.131 49.1739 58.2298 47.1728 58.3344L47.1725 58.3344C45.6098 58.4161 43.9919 58.5006 42.4977 58.959C41.069 59.3989 39.7466 60.2083 38.4693 60.9934C36.758 62.045 35.1429 63.0364 33.4986 63.0364C31.8543 63.0364 30.2406 62.045 28.5293 60.9934C27.2535 60.2097 25.9325 59.3989 24.5023 58.959C23.0081 58.502 21.39 58.4161 19.8273 58.3344C17.8262 58.2298 15.9357 58.1295 14.6934 57.2771C13.4467 56.4204 12.7666 54.76 12.0486 53.0021C11.485 51.6225 10.9009 50.197 9.97758 48.9993C9.07219 47.8271 7.8318 46.8802 6.63122 45.9637L6.62347 45.9578L6.61548 45.9517C5.0528 44.7591 3.5773 43.6331 3.09605 42.2344C2.6466 40.9309 3.11814 39.2459 3.61698 37.4633L3.6189 37.4565L3.62274 37.4427C4.02934 35.9872 4.44906 34.4846 4.44906 32.9494C4.44906 31.4155 4.03011 29.9158 3.62386 28.4615L3.6189 28.4437C3.1179 26.6586 2.64602 24.9724 3.09605 23.6673C3.57782 22.267 5.05453 21.1401 6.61908 19.9461L6.62202 19.9438L6.62738 19.9397C7.82871 19.0227 9.07158 18.0739 9.97612 16.8995C10.8984 15.7069 11.48 14.2871 12.0428 12.913L12.0428 12.913L12.05 12.8952C12.7666 11.1374 13.4453 9.47838 14.6905 8.62452C15.9343 7.76923 17.8262 7.67038 19.8287 7.56579L19.8482 7.56476C21.4035 7.48199 23.0143 7.39627 24.5009 6.93973C25.9312 6.50173 27.2526 5.69048 28.5302 4.90605L28.5303 4.90603L28.5337 4.90394L28.5446 4.89723C30.2489 3.85245 31.8593 2.86529 33.4986 2.86529C35.1414 2.86529 36.7566 3.85668 38.4664 4.90681C39.7451 5.69333 41.0661 6.50421 42.4977 6.9426C43.9849 7.39789 45.595 7.48349 47.1522 7.56629L47.1699 7.56723C49.1724 7.67181 51.0629 7.77353 52.3066 8.62738C53.5533 9.48411 54.232 11.1431 54.9485 12.8981L54.9568 12.9184L54.9569 12.9184C55.5193 14.2931 56.0993 15.7105 57.021 16.9023C57.927 18.0754 59.1684 19.0227 60.3683 19.9383L60.3737 19.9424L60.3815 19.9484C61.9457 21.1425 63.4227 22.2699 63.904 23.6716C64.3524 24.9692 63.8826 26.6481 63.385 28.4262L63.3797 28.4452C62.9704 29.905 62.5481 31.4122 62.5481 32.9523C62.5481 34.4923 62.969 35.9995 63.3797 37.4579C63.8809 39.243 64.354 40.9292 63.904 42.2344ZM33.5012 10.0081C20.6182 10.0081 10.1748 20.2816 10.1748 32.9538C10.1748 45.6266 20.6182 55.8996 33.5012 55.8996C46.3836 55.8996 56.8276 45.6266 56.8276 32.9538C56.8135 20.2869 46.3782 10.022 33.5012 10.0081ZM33.5012 53.7143C21.845 53.7143 12.3964 44.4198 12.3964 32.9538C12.3964 21.4884 21.845 12.1934 33.5012 12.1934C45.1568 12.1934 54.606 21.4884 54.606 32.9538C54.593 44.4144 45.1514 53.702 33.5012 53.7143ZM42.7123 22.3474L22.7183 42.0151L24.289 43.5608L44.2835 23.8924L42.7123 22.3474ZM40.1658 35.1392C37.7115 35.1392 35.7227 37.0961 35.7227 39.5098C35.7227 41.9239 37.7115 43.8804 40.1658 43.8804C42.6195 43.8804 44.6089 41.9239 44.6089 39.5098C44.6089 37.0961 42.6195 35.1392 40.1658 35.1392ZM40.1658 41.6951C38.9389 41.6951 37.9442 40.7166 37.9442 39.5098C37.9442 38.3029 38.9389 37.3245 40.1658 37.3245C41.3927 37.3245 42.3874 38.3029 42.3874 39.5098C42.3874 40.7166 41.3927 41.6951 40.1658 41.6951ZM31.2798 26.3979C31.2798 28.812 29.2904 30.7685 26.8367 30.7685C24.3824 30.7685 22.3936 28.812 22.3936 26.3979C22.3936 23.9842 24.3824 22.0273 26.8367 22.0273C29.2904 22.0273 31.2798 23.9842 31.2798 26.3979ZM29.0583 26.3979C29.0583 25.191 28.0636 24.2126 26.8367 24.2126C25.6098 24.2126 24.6151 25.191 24.6151 26.3979C24.6151 27.6047 25.6098 28.5832 26.8367 28.5832C28.0636 28.5832 29.0583 27.6047 29.0583 26.3979Z" fill="white"/>
</svg>
